<?xml version="1.0" encoding="utf-8"?>
<!DOCTYPE svg PUBLIC "-//W3C//DTD SVG 1.1//EN" "http://www.w3.org/Graphics/SVG/1.1/DTD/svg11.dtd">
<svg version="1.1" id="图形" xmlns="http://www.w3.org/2000/svg" xmlns:xlink="http://www.w3.org/1999/xlink" x="0px" y="0px" width="1024px" height="1024px" viewBox="0 0 1024 1024" enable-background="new 0 0 1024 1024" xml:space="preserve">
  <path fill="#272636" d="M60.14976 503.07968l903.70048 0c32.31744 0 58.60352 29.02016 58.60352 64.69632s-26.28608 64.69632-58.60352 64.69632L60.14976 632.47232c-32.3072 0-58.59328-29.02016-58.59328-64.69632S27.84256 503.07968 60.14976 503.07968zM963.85024 364.69632 60.14976 364.69632c-32.3072 0-58.59328-29.02016-58.59328-64.69632s26.28608-64.69632 58.59328-64.69632l903.70048 0c32.31744 0 58.60352 29.0304 58.60352 64.69632S996.15744 364.69632 963.85024 364.69632zM963.85024 96.93056 60.14976 96.93056c-32.3072 0-58.59328-29.0304-58.59328-64.69632s26.28608-64.69632 58.59328-64.69632l903.70048 0c32.31744 0 58.60352 29.02016 58.60352 64.69632S996.15744 96.93056 963.85024 96.93056z" transform="translate(0, 812) scale(1, -1)"/>
</svg>
