<?xml version="1.0" encoding="utf-8"?>
<!DOCTYPE svg PUBLIC "-//W3C//DTD SVG 1.1//EN" "http://www.w3.org/Graphics/SVG/1.1/DTD/svg11.dtd">
<svg version="1.1" id="图形" xmlns="http://www.w3.org/2000/svg" xmlns:xlink="http://www.w3.org/1999/xlink" x="0px" y="0px" width="1024px" height="1024px" viewBox="0 0 1024 1024" enable-background="new 0 0 1024 1024" xml:space="preserve">
  <path fill="#272636" d="M512 747C265.146 747 65 546.854 65 300c0-246.854 200.146-447 447-447 246.854 0 447 200.146 447 447C959 546.854 758.854 747 512 747zM512-117.2C281.952-117.2 94.8 69.952 94.8 300S281.952 717.2 512 717.2 929.2 530.048 929.2 300 742.048-117.2 512-117.2zM683.35 491.743 511.971 320.364 340.65 491.743 320.25 471.313 491.6 299.978 320.264 128.658 340.65 108.271 511.971 279.592 683.35 108.258 703.736 128.658 532.414 299.978 703.75 471.357Z" transform="translate(0, 812) scale(1, -1)"/>
</svg>
