<?xml version="1.0" encoding="utf-8"?>
<!DOCTYPE svg PUBLIC "-//W3C//DTD SVG 1.1//EN" "http://www.w3.org/Graphics/SVG/1.1/DTD/svg11.dtd">
<svg version="1.1" id="图形" xmlns="http://www.w3.org/2000/svg" xmlns:xlink="http://www.w3.org/1999/xlink" x="0px" y="0px" width="1024px" height="1024px" viewBox="0 0 1024 1024" enable-background="new 0 0 1024 1024" xml:space="preserve">
  <path fill="#272636" d="M869.530906 665.528044l-70.527286 0 0-0.024559c-16.074094-0.511653-28.949332-13.719466-28.949332-29.949103s12.875239-29.437449 28.949332-29.949103l0-0.045025 46.6249 0c23.039739-0.005117 41.785685-18.783809 41.785685-41.899272l0-427.467745c0-23.084765-18.745946-41.86755-41.785685-41.86755l-265.179568 0-69.482491-69.687152-69.517283 69.687152L176.298262 94.325687c-23.069415 0-41.815361 18.783809-41.815361 41.86755L134.482901 563.660982c0 23.115464 18.745946 41.899272 41.815361 41.899272l79.750345 0 0 0.028653c0.107447-0.001023 0.213871-0.008186 0.321318-0.008186 16.521279 0 29.91431 13.419637 29.91431 29.973662s-13.392008 29.973662-29.91431 29.973662c-0.107447 0-0.213871-0.007163-0.321318-0.008186l0 0.008186L152.394852 665.528044c-42.86118 0-77.761038-34.964326-77.761038-77.914534l0-475.370755c0-42.945091 34.894741-77.914534 77.761038-77.914534l260.148995 0 98.42159-98.553597 98.386798 98.553597 260.178671 0c42.866297 0 77.730339 34.964326 77.730339 77.914534L947.261245 587.612487C947.261245 630.558601 912.397203 665.528044 869.530906 665.528044zM267.923052 505.435882c0-15.812127 12.444427-28.684296 27.733645-28.684296l105.089453 0-25.235754-95.736435L269.924639 381.015152c-15.289218 0-27.733645-12.901845-27.733645-28.714995 0-15.812127 12.444427-28.713972 27.733645-28.713972l90.447988 0-29.956266-113.641223c0-15.314801 12.876262-27.813462 28.656667-27.813462 15.781428 0 28.658713 12.498662 28.658713 27.813462l29.956266 113.641223 108.411105 0L496.14387 209.949055c0-15.319917 12.846586-27.818579 28.626991-27.818579 15.811104 0 28.692482 12.498662 28.692482 27.818579l29.955242 113.636107L708.336644 323.585161c15.284101 0 27.757181 12.901845 27.757181 28.713972 0 15.813151-12.474103 28.714995-27.757181 28.714995L598.557378 381.014128l25.236777 95.736435 110.269429 0c15.289218 0 27.762297 12.872169 27.762297 28.684296 0 15.842827-12.474103 28.750811-27.762297 28.750811l-95.129614 0 30.326702 115.045199c0 15.319917-12.881378 27.788903-28.692482 27.788903-15.780405 0-28.626991-12.468986-28.626991-27.788903l-30.326702-115.045199L473.201345 534.18567l30.325679 115.045199c0 15.319917-12.876262 27.788903-28.658713 27.788903-15.780405 0-28.656667-12.468986-28.656667-27.788903l-30.325679-115.045199L295.656697 534.18567C280.367479 534.18567 267.923052 521.278709 267.923052 505.435882zM566.473659 476.751586l-25.236777-95.736435L432.825776 381.015152l25.235754 95.736435L566.473659 476.751586z" transform="translate(0, 812) scale(1, -1)"/>
</svg>
