<?xml version="1.0" encoding="utf-8"?>
<!DOCTYPE svg PUBLIC "-//W3C//DTD SVG 1.1//EN" "http://www.w3.org/Graphics/SVG/1.1/DTD/svg11.dtd">
<svg version="1.1" id="图形" xmlns="http://www.w3.org/2000/svg" xmlns:xlink="http://www.w3.org/1999/xlink" x="0px" y="0px" width="1024px" height="1024px" viewBox="0 0 1024 1024" enable-background="new 0 0 1024 1024" xml:space="preserve">
  <path fill="#272636" d="M602.174766 286.468822c1.385557 2.073218 3.439332 4.740978 6.445806 7.90504l4.895497 5.15951-1.681292 30.55183c-2.514263 46.049802-45.617967 82.122369-98.128925 82.122369-1.726318 0-3.479241-0.039909-5.197372-0.11768-26.229384-1.071402-50.443879-10.987239-68.186985-27.92398-17.881253-17.0974-27.03268-39.244816-25.76685-62.362326l1.51961-27.738761 4.660136-4.547573c1.100054-1.071402 2.098801-2.114151 2.991124-3.124154-24.150026-6.307659-41.161469-35.122939-41.161469-71.133084L382.564046 21.584989c0-39.926338 37.149085-72.408123 82.812077-72.408123l95.632057 0c45.661969 0 82.813101 32.482809 82.818217 72.408123L643.826398 215.260014C643.827421 251.789998 626.923426 280.233817 602.174766 286.468822zM605.705172 21.584989c0-21.104667-20.050662-38.273698-44.695968-38.273698l-95.632057 0c-24.642237 0-44.689828 17.170055-44.689828 38.273698L420.687318 215.260014c0 23.582091 10.083659 37.207413 13.270235 38.263465 19.814278 0.052189 27.435862 10.644431 29.795607 15.205307 5.783727 11.17962 2.134617 25.00244-10.265808 39.015595l-0.853437 15.746636c-0.756223 13.797237 4.748141 27.03882 15.501042 37.287231 10.914584 10.434653 25.883507 16.537651 42.097794 17.182334l3.077082 0.071631c32.372292-0.016373 58.921971-21.817911 60.44772-49.64877l0.953721-17.315364c-13.239536-15.971763-17.033955-31.154557-10.674107-42.849924 5.033643-9.274224 15.437597-14.619976 28.573779-14.693654 2.877537-1.308809 13.095249-13.879102 13.095249-38.264489L605.706195 21.584989zM706.670701 428.759549c-50.647517 42.841737-119.358435 66.436108-193.477526 66.436108-74.120115 0-142.832056-23.594371-193.479573-66.436108-51.974745-43.965328-80.597643-105.047498-80.597643-171.994236l0-3.241834c0-10.355859 8.394181-18.750039 18.750039-18.750039 10.355859 0 18.750039 8.395204 18.750039 18.750039l0.617054 0 0 3.241834c0 29.79663 6.220678 57.893548 18.491143 83.509972 11.740392 24.5133 28.714995 46.188972 50.452065 64.425312 43.317575 36.340673 102.631472 56.354496 167.017898 56.354496 64.385403 0 123.6993-20.013823 167.015851-56.354496 21.735024-18.23634 38.709627-39.912012 50.450019-64.424288 12.142551-25.353434 18.35095-53.139268 18.47784-82.595136-0.254803-1.243317-0.38988-2.53166-0.38988-3.850701 0-10.524704 8.532327-19.056008 19.056008-19.056008 10.42135 0 18.875906 8.368598 19.040658 18.750039l0.426719 0 0 3.241834C787.271414 323.712051 758.64647 384.794222 706.670701 428.759549zM513.194198 661.228111c-212.646098 0-385.645221-150.402475-385.645221-335.272973l0-3.241834 0.413416 0c0.974188-9.44 8.950859-16.803711 18.648732-16.803711 9.697873 0 17.674545 7.362688 18.648732 16.803711l0.405229 0 0 3.241834c0 166.029384 155.900699 301.104779 347.529111 301.104779s347.528088-135.075395 347.528088-301.104779l0-3.241834 0.617054 0c0-10.355859 8.395204-18.750039 18.750039-18.750039s18.750039 8.395204 18.750039 18.750039l0 3.241834C898.840442 510.825636 725.840296 661.228111 513.194198 661.228111z" transform="translate(0, 812) scale(1, -1)"/>
</svg>
